<?xml version="1.0" encoding="UTF-8"?>
<!DOCTYPE svg PUBLIC "-//W3C//DTD SVG 1.1//EN" "http://www.w3.org/Graphics/SVG/1.1/DTD/svg11.dtd">
<svg xmlns="http://www.w3.org/2000/svg" version="1.1" width="1960px" height="1125px" style="shape-rendering:geometricPrecision; text-rendering:geometricPrecision; image-rendering:optimizeQuality; fill-rule:evenodd; clip-rule:evenodd" xmlns:xlink="http://www.w3.org/1999/xlink">
<g><path style="opacity:0.996" fill="#fefefe" d="M -0.5,-0.5 C 332.833,-0.5 666.167,-0.5 999.5,-0.5C 999.5,86.5 999.5,173.5 999.5,260.5C 1030.13,264.799 1046.13,282.466 1047.5,313.5C 1045.63,343.367 1029.97,361.034 1000.5,366.5C 999.5,451.497 999.167,536.497 999.5,621.5C 1006.84,621.334 1014.17,621.5 1021.5,622C 1036.3,641.771 1051.47,661.271 1067,680.5C 1067.5,660.836 1067.67,641.169 1067.5,621.5C 1076.5,621.5 1085.5,621.5 1094.5,621.5C 1094.5,654.833 1094.5,688.167 1094.5,721.5C 1085.14,721.832 1075.81,721.498 1066.5,720.5C 1051.52,701.023 1036.36,681.69 1021,662.5C 1020.5,682.164 1020.33,701.831 1020.5,721.5C 1013.5,721.5 1006.5,721.5 999.5,721.5C 999.5,855.833 999.5,990.167 999.5,1124.5C 666.167,1124.5 332.833,1124.5 -0.5,1124.5C -0.5,749.5 -0.5,374.5 -0.5,-0.5 Z M 640.5,259.5 C 672.022,259.533 691.189,274.866 698,305.5C 700.093,333.382 688.259,352.548 662.5,363C 635.702,370.354 613.869,363.187 597,341.5C 583.72,315.79 587.22,292.623 607.5,272C 617.412,264.755 628.412,260.588 640.5,259.5 Z M 999.5,260.5 C 999.5,268.833 999.5,277.167 999.5,285.5C 978.096,282.408 966.096,291.575 963.5,313C 964.901,330.234 974.234,339.734 991.5,341.5C 994.237,340.954 996.904,340.288 999.5,339.5C 999.5,348.167 999.5,356.833 999.5,365.5C 962.612,367.265 941.945,349.932 937.5,313.5C 937.928,295.811 944.928,281.311 958.5,270C 971.016,261.797 984.682,258.631 999.5,260.5 Z M 522.5,262.5 C 531.167,262.5 539.833,262.5 548.5,262.5C 548.5,288.833 548.5,315.167 548.5,341.5C 558.833,341.5 569.167,341.5 579.5,341.5C 579.5,348.5 579.5,355.5 579.5,362.5C 560.5,362.5 541.5,362.5 522.5,362.5C 522.5,329.167 522.5,295.833 522.5,262.5 Z M 716.5,262.5 C 724.84,262.334 733.173,262.5 741.5,263C 757.69,283.023 773.69,303.189 789.5,323.5C 790.5,303.178 790.833,282.844 790.5,262.5C 798.833,262.5 807.167,262.5 815.5,262.5C 815.5,295.833 815.5,329.167 815.5,362.5C 807.16,362.666 798.827,362.5 790.5,362C 774.714,341.213 758.548,320.713 742,300.5C 741.5,321.164 741.333,341.831 741.5,362.5C 733.167,362.5 724.833,362.5 716.5,362.5C 716.5,329.167 716.5,295.833 716.5,262.5 Z M 837.5,262.5 C 850.504,262.333 863.504,262.5 876.5,263C 905.357,267.023 921.024,283.523 923.5,312.5C 922.898,329.927 915.565,343.76 901.5,354C 896.166,357.168 890.499,359.501 884.5,361C 868.869,362.362 853.202,362.862 837.5,362.5C 837.5,329.167 837.5,295.833 837.5,262.5 Z M 999.5,339.5 C 999.5,322.167 999.5,304.833 999.5,287.5C 1012.1,291.28 1019.1,299.78 1020.5,313C 1019.32,326.559 1012.32,335.392 999.5,339.5 Z M 658.5,442.5 C 677.5,442.5 696.5,442.5 715.5,442.5C 715.5,449.5 715.5,456.5 715.5,463.5C 705.167,463.5 694.833,463.5 684.5,463.5C 684.5,469.5 684.5,475.5 684.5,481.5C 693.833,481.5 703.167,481.5 712.5,481.5C 712.5,488.5 712.5,495.5 712.5,502.5C 703.167,502.5 693.833,502.5 684.5,502.5C 684.5,515.5 684.5,528.5 684.5,541.5C 675.833,541.5 667.167,541.5 658.5,541.5C 658.5,508.5 658.5,475.5 658.5,442.5 Z M 732.5,442.5 C 740.833,442.5 749.167,442.5 757.5,442.5C 757.333,464.503 757.5,486.503 758,508.5C 760.372,517.362 766.205,522.029 775.5,522.5C 783.842,522.259 789.342,518.259 792,510.5C 793.447,487.878 793.947,465.211 793.5,442.5C 801.833,442.5 810.167,442.5 818.5,442.5C 818.667,465.169 818.5,487.836 818,510.5C 815.267,526.57 806.1,537.07 790.5,542C 772.054,547.181 755.554,543.681 741,531.5C 736.684,525.529 734.018,518.863 733,511.5C 732.5,488.502 732.333,465.502 732.5,442.5 Z M 830.5,442.5 C 853.167,442.5 875.833,442.5 898.5,442.5C 898.5,449.5 898.5,456.5 898.5,463.5C 891.167,463.5 883.833,463.5 876.5,463.5C 876.5,489.5 876.5,515.5 876.5,541.5C 868.167,541.5 859.833,541.5 851.5,541.5C 851.5,515.5 851.5,489.5 851.5,463.5C 844.5,463.5 837.5,463.5 830.5,463.5C 830.5,456.5 830.5,449.5 830.5,442.5 Z M 910.5,442.5 C 918.833,442.5 927.167,442.5 935.5,442.5C 935.333,464.169 935.5,485.836 936,507.5C 937.959,516.955 943.792,521.955 953.5,522.5C 961.553,522.607 967.053,518.94 970,511.5C 971.447,488.544 971.947,465.544 971.5,442.5C 979.833,442.5 988.167,442.5 996.5,442.5C 996.667,465.169 996.5,487.836 996,510.5C 993.282,526.556 984.116,537.056 968.5,542C 950.646,546.977 934.479,543.811 920,532.5C 914.795,526.087 911.795,518.753 911,510.5C 910.5,487.836 910.333,465.169 910.5,442.5 Z M 147.5,619.5 C 158.811,619.863 169.477,622.696 179.5,628C 176.42,634.161 173.087,640.161 169.5,646C 164.284,643.318 158.617,641.485 152.5,640.5C 146.236,640.619 142.236,643.619 140.5,649.5C 141.15,652.655 142.817,655.155 145.5,657C 155.755,659.639 165.422,663.639 174.5,669C 180.634,674.436 183.634,681.27 183.5,689.5C 183.567,704.901 176.567,715.401 162.5,721C 144.007,726.732 127.007,723.899 111.5,712.5C 114.493,705.845 117.993,699.512 122,693.5C 131.072,702.378 141.572,704.878 153.5,701C 158.998,695.318 158.665,689.985 152.5,685C 145.048,681.738 137.381,679.071 129.5,677C 119.259,672.398 114.259,664.398 114.5,653C 116.365,632.636 127.365,621.469 147.5,619.5 Z M 619.5,619.5 C 630.811,619.863 641.477,622.696 651.5,628C 647.913,633.839 644.58,639.839 641.5,646C 636.284,643.318 630.617,641.485 624.5,640.5C 615.232,641.23 611.732,645.896 614,654.5C 615.255,655.211 616.421,656.044 617.5,657C 627.755,659.639 637.422,663.639 646.5,669C 652.485,674.305 655.485,680.971 655.5,689C 655.591,705.906 647.591,716.906 631.5,722C 613.883,726.21 597.549,723.21 582.5,713C 586.293,706.581 589.96,700.081 593.5,693.5C 599.943,699.137 607.443,702.47 616,703.5C 619.229,702.901 622.396,702.068 625.5,701C 630.39,696.488 630.724,691.655 626.5,686.5C 615.827,681.999 605.161,677.499 594.5,673C 586.902,664.436 584.736,654.602 588,643.5C 592.926,628.126 603.426,620.126 619.5,619.5 Z M 41.5,622.5 C 60.1667,622.5 78.8333,622.5 97.5,622.5C 97.5,629.5 97.5,636.5 97.5,643.5C 87.1667,643.5 76.8333,643.5 66.5,643.5C 66.5,649.167 66.5,654.833 66.5,660.5C 76.5,660.5 86.5,660.5 96.5,660.5C 96.5,667.5 96.5,674.5 96.5,681.5C 86.5,681.5 76.5,681.5 66.5,681.5C 66.5,687.833 66.5,694.167 66.5,700.5C 76.8333,700.5 87.1667,700.5 97.5,700.5C 97.5,707.5 97.5,714.5 97.5,721.5C 78.8333,721.5 60.1667,721.5 41.5,721.5C 41.5,688.5 41.5,655.5 41.5,622.5 Z M 191.5,622.5 C 214.167,622.5 236.833,622.5 259.5,622.5C 259.5,629.5 259.5,636.5 259.5,643.5C 252.167,643.5 244.833,643.5 237.5,643.5C 237.5,669.5 237.5,695.5 237.5,721.5C 229.167,721.5 220.833,721.5 212.5,721.5C 212.5,695.5 212.5,669.5 212.5,643.5C 205.5,643.5 198.5,643.5 191.5,643.5C 191.5,636.5 191.5,629.5 191.5,622.5 Z M 300.5,622.5 C 309.833,622.5 319.167,622.5 328.5,622.5C 340.406,655.481 352.739,688.315 365.5,721C 356.482,721.832 347.482,721.665 338.5,720.5C 336.5,715.5 334.5,710.5 332.5,705.5C 320.18,704.334 307.847,704.167 295.5,705C 292.972,710.251 290.639,715.584 288.5,721C 279.814,721.832 271.147,721.665 262.5,720.5C 275.183,687.808 287.849,655.141 300.5,622.5 Z M 377.5,622.5 C 392.837,622.333 408.17,622.5 423.5,623C 436.908,625.581 443.575,633.748 443.5,647.5C 443.671,656.658 440.004,663.825 432.5,669C 448.986,673.114 455.486,683.614 452,700.5C 447.843,713.183 439.01,720.016 425.5,721C 409.503,721.5 393.503,721.667 377.5,721.5C 377.5,688.5 377.5,655.5 377.5,622.5 Z M 469.5,622.5 C 477.833,622.5 486.167,622.5 494.5,622.5C 494.5,648.5 494.5,674.5 494.5,700.5C 505.167,700.5 515.833,700.5 526.5,700.5C 526.5,707.5 526.5,714.5 526.5,721.5C 507.5,721.5 488.5,721.5 469.5,721.5C 469.5,688.5 469.5,655.5 469.5,622.5 Z M 540.5,622.5 C 548.833,622.5 557.167,622.5 565.5,622.5C 565.5,655.5 565.5,688.5 565.5,721.5C 557.167,721.5 548.833,721.5 540.5,721.5C 540.5,688.5 540.5,655.5 540.5,622.5 Z M 672.5,622.5 C 681.167,622.5 689.833,622.5 698.5,622.5C 698.5,635.167 698.5,647.833 698.5,660.5C 711.167,660.5 723.833,660.5 736.5,660.5C 736.5,647.833 736.5,635.167 736.5,622.5C 744.833,622.5 753.167,622.5 761.5,622.5C 761.5,655.5 761.5,688.5 761.5,721.5C 753.167,721.5 744.833,721.5 736.5,721.5C 736.5,707.5 736.5,693.5 736.5,679.5C 723.833,679.5 711.167,679.5 698.5,679.5C 698.5,693.5 698.5,707.5 698.5,721.5C 689.833,721.5 681.167,721.5 672.5,721.5C 672.5,688.5 672.5,655.5 672.5,622.5 Z M 796.5,622.5 C 804.86,622.169 813.193,622.502 821.5,623.5C 828.245,640.907 835.078,658.24 842,675.5C 849.425,658.311 856.592,640.978 863.5,623.5C 871.813,622.335 880.147,622.168 888.5,623C 894.008,655.72 899.008,688.553 903.5,721.5C 895.167,721.5 886.833,721.5 878.5,721.5C 876.329,702.129 873.829,682.796 871,663.5C 862.724,682.385 854.724,701.385 847,720.5C 845.262,721.127 843.429,721.46 841.5,721.5C 839.359,721.387 837.525,720.72 836,719.5C 828.868,700.575 821.201,681.909 813,663.5C 810.273,682.863 807.439,702.196 804.5,721.5C 796.167,721.5 787.833,721.5 779.5,721.5C 785.06,688.474 790.727,655.474 796.5,622.5 Z M 921.5,622.5 C 940.167,622.5 958.833,622.5 977.5,622.5C 977.5,629.5 977.5,636.5 977.5,643.5C 967.167,643.5 956.833,643.5 946.5,643.5C 946.5,649.167 946.5,654.833 946.5,660.5C 956.167,660.5 965.833,660.5 975.5,660.5C 975.5,667.5 975.5,674.5 975.5,681.5C 965.833,681.5 956.167,681.5 946.5,681.5C 946.5,687.833 946.5,694.167 946.5,700.5C 956.833,700.5 967.167,700.5 977.5,700.5C 977.5,707.5 977.5,714.5 977.5,721.5C 958.833,721.5 940.167,721.5 921.5,721.5C 921.5,688.5 921.5,655.5 921.5,622.5 Z M 999.5,721.5 C 997.833,721.5 996.167,721.5 994.5,721.5C 994.5,688.5 994.5,655.5 994.5,622.5C 996.167,622.5 997.833,622.5 999.5,622.5C 999.5,655.5 999.5,688.5 999.5,721.5 Z"/></g>
<g><path style="opacity:0.967" fill="#fefefe" d="M 1064.5,262.5 C 1073.51,262.334 1082.51,262.5 1091.5,263C 1106.3,282.771 1121.47,302.271 1137,321.5C 1137.5,301.836 1137.67,282.169 1137.5,262.5C 1146.5,262.5 1155.5,262.5 1164.5,262.5C 1164.5,296.167 1164.5,329.833 1164.5,363.5C 1155.49,363.666 1146.49,363.5 1137.5,363C 1122.38,342.88 1106.88,323.047 1091,303.5C 1090.5,323.497 1090.33,343.497 1090.5,363.5C 1081.83,363.5 1073.17,363.5 1064.5,363.5C 1064.5,329.833 1064.5,296.167 1064.5,262.5 Z"/></g>
<g><path style="opacity:0.964" fill="#fefefe" d="M 862.5,283.5 C 883.989,281.702 895.655,291.368 897.5,312.5C 895.655,333.632 883.989,343.298 862.5,341.5C 862.5,322.167 862.5,302.833 862.5,283.5 Z"/></g>
<g><path style="opacity:0.965" fill="#fefefe" d="M 637.5,284.5 C 654.905,282.762 666.405,290.096 672,306.5C 672.892,331.942 660.726,343.109 635.5,340C 616.94,332.044 611.107,318.544 618,299.5C 622.645,292.013 629.145,287.013 637.5,284.5 Z"/></g>
<g><path style="opacity:0.964" fill="#fefefe" d="M 1017.5,442.5 C 1035.56,442.054 1053.56,442.554 1071.5,444C 1084.73,449.261 1091.39,459.095 1091.5,473.5C 1091.18,487.985 1084.18,497.485 1070.5,502C 1080.59,515.514 1090.92,528.847 1101.5,542C 1090.15,542.832 1078.82,542.666 1067.5,541.5C 1060,529.833 1052.5,518.167 1045,506.5C 1044.5,518.495 1044.33,530.495 1044.5,542.5C 1035.5,542.5 1026.5,542.5 1017.5,542.5C 1017.5,509.167 1017.5,475.833 1017.5,442.5 Z M 1044.5,462.5 C 1052.54,461.223 1058.71,463.89 1063,470.5C 1064.63,476.732 1062.79,481.565 1057.5,485C 1053.27,486.29 1048.94,486.79 1044.5,486.5C 1044.5,478.5 1044.5,470.5 1044.5,462.5 Z"/></g>
<g><path style="opacity:0.962" fill="#fefefe" d="M 1110.5,442.5 C 1129.83,442.5 1149.17,442.5 1168.5,442.5C 1168.5,449.833 1168.5,457.167 1168.5,464.5C 1158.17,464.5 1147.83,464.5 1137.5,464.5C 1137.5,469.833 1137.5,475.167 1137.5,480.5C 1147.17,480.5 1156.83,480.5 1166.5,480.5C 1166.5,488.167 1166.5,495.833 1166.5,503.5C 1156.83,503.5 1147.17,503.5 1137.5,503.5C 1137.5,509.167 1137.5,514.833 1137.5,520.5C 1147.83,520.5 1158.17,520.5 1168.5,520.5C 1168.5,527.833 1168.5,535.167 1168.5,542.5C 1149.17,542.5 1129.83,542.5 1110.5,542.5C 1110.5,509.167 1110.5,475.833 1110.5,442.5 Z"/></g>
<g><path style="opacity:0.971" fill="#fefefe" d="M 1104.5,621.5 C 1127.5,621.5 1150.5,621.5 1173.5,621.5C 1173.5,628.833 1173.5,636.167 1173.5,643.5C 1166.5,643.5 1159.5,643.5 1152.5,643.5C 1152.5,669.5 1152.5,695.5 1152.5,721.5C 1143.5,721.5 1134.5,721.5 1125.5,721.5C 1125.5,695.5 1125.5,669.5 1125.5,643.5C 1118.5,643.5 1111.5,643.5 1104.5,643.5C 1104.5,636.167 1104.5,628.833 1104.5,621.5 Z"/></g>
<g><path style="opacity:0.881" fill="#fefefe" d="M 402.5,641.5 C 407.297,641.121 411.964,641.621 416.5,643C 421.447,647.985 421.78,653.319 417.5,659C 412.777,661.235 407.777,662.069 402.5,661.5C 402.5,654.833 402.5,648.167 402.5,641.5 Z"/></g>
<g><path style="opacity:0.863" fill="#fefefe" d="M 313.5,652.5 C 318.061,662.835 322.061,673.502 325.5,684.5C 317.833,685.833 310.167,685.833 302.5,684.5C 306.174,673.81 309.841,663.143 313.5,652.5 Z"/></g>
<g><path style="opacity:0.907" fill="#fefefe" d="M 402.5,680.5 C 408.925,680.13 415.258,680.63 421.5,682C 427.542,685.702 429.042,690.869 426,697.5C 424.786,699.049 423.286,700.215 421.5,701C 415.231,702.257 408.898,702.757 402.5,702.5C 402.5,695.167 402.5,687.833 402.5,680.5 Z"/></g>
</svg>
